<svg width="1024" height="1024" viewBox="0 0 1024 1024" fill="none" xmlns="http://www.w3.org/2000/svg">
<rect width="1024" height="1024" fill="#E5E5E5"/>
<g clip-path="url(#clip0_0_1)">
<path fill-rule="evenodd" clip-rule="evenodd" d="M803.382 617.008C810.974 616.165 946.347 631.646 956.054 597.654C970.099 523.54 981.205 456.659 904.545 433.572C883.108 422.242 825.751 418.488 751.744 425.571C708.753 328.797 698.592 225.235 548.286 224.289C360.584 219.435 325.327 275.331 269.96 416.379C236.495 417.025 55.0795 379.398 56.3681 481.119C49.8955 511.872 45.0412 586.324 95.2024 618.695C119.474 618.695 159.928 620.314 176.109 620.314C177.727 505.399 313.65 523.202 315.27 617.077C352.484 620.314 635.648 613.841 655.078 612.222C653.391 506.88 809.988 503.278 803.378 617.008H803.382Z" fill="#FFD600" stroke="black" stroke-width="8" stroke-linejoin="bevel"/>
<path fill-rule="evenodd" clip-rule="evenodd" d="M288.188 430.796C288.188 430.796 328.188 305.202 391.294 270.261C431.746 253.553 486.608 250.198 534.57 247.878C530.052 266.046 542.232 408.011 529.287 432.316C503.398 438.393 299.517 433.835 288.186 430.797L288.188 430.796Z" fill="white" stroke="black" stroke-width="3" stroke-linejoin="bevel"/>
<path fill-rule="evenodd" clip-rule="evenodd" d="M76.044 431.369C52.8992 459.141 49.594 490.002 56.2057 527.036C112.413 551.719 168.62 397.426 76.044 431.369Z" fill="white" stroke="black" stroke-width="7" stroke-linejoin="bevel"/>
<path fill-rule="evenodd" clip-rule="evenodd" d="M970.893 489.798C974.129 446.553 941.768 428.537 943.383 489.793C940.15 551.058 972.509 551.058 970.893 489.798Z" fill="#FF4D00" stroke="black" stroke-width="3" stroke-linejoin="bevel"/>
<path fill-rule="evenodd" clip-rule="evenodd" d="M47.0967 568.071C47.0967 568.071 53.5693 545.414 89.1688 564.835C123.15 592.351 43.861 611.774 47.0967 568.071V568.071Z" fill="white" stroke="black" stroke-width="3" stroke-linejoin="bevel"/>
<path fill-rule="evenodd" clip-rule="evenodd" d="M976.19 561.607C976.19 561.607 969.718 538.949 934.118 558.37C900.137 585.886 979.426 605.31 976.19 561.607Z" fill="#FF0000" stroke="black" stroke-width="3" stroke-linejoin="bevel"/>
<path fill-rule="evenodd" clip-rule="evenodd" d="M658.389 552.339C585.877 614.99 693.121 758.968 793.693 675.674C893.21 571.59 728.932 477.57 658.389 552.339Z" fill="black" stroke="black" stroke-width="3" stroke-linejoin="bevel"/>
<path fill-rule="evenodd" clip-rule="evenodd" d="M683.22 579.242C712.854 536.59 823.548 576.587 769.493 651.742C713.155 706.793 648.304 628.207 683.22 579.242Z" fill="white" stroke="black" stroke-width="3"/>
<path fill-rule="evenodd" clip-rule="evenodd" d="M286.572 430.509C331.878 527.621 323.791 602.077 327.026 602.077C333.498 602.077 514.729 606.93 530.909 598.839C537.383 559.994 527.674 430.509 527.674 430.509C509.873 436.985 340.579 441.502 286.572 430.509V430.509Z" stroke="black" stroke-linejoin="bevel"/>
<path fill-rule="evenodd" clip-rule="evenodd" d="M553.301 432.126C554.829 445.074 548.719 595.598 548.719 600.455C574.689 600.453 620.516 603.691 640.376 595.598C655.653 532.474 696.638 526.001 715.23 516.289C721.342 504.959 721.342 424.032 721.342 424.032C715.23 436.98 608.295 435.364 553.301 432.126H553.301Z" stroke="black" stroke-linejoin="bevel"/>
<path fill-rule="evenodd" clip-rule="evenodd" d="M515.156 456.41C513.538 443.462 473.084 443.462 469.848 459.648C471.466 477.451 513.536 475.833 515.156 456.41Z" fill="black" stroke="white" stroke-width="3" stroke-linejoin="bevel"/>
<path fill-rule="evenodd" clip-rule="evenodd" d="M723.471 460.256C721.854 448.368 681.399 448.368 678.164 463.229C679.781 479.574 721.851 478.088 723.471 460.256Z" fill="black" stroke="white" stroke-width="3" stroke-linejoin="bevel"/>
<path fill-rule="evenodd" clip-rule="evenodd" d="M177.033 554.119C104.521 616.77 211.765 760.748 312.337 677.456C411.854 573.372 247.576 479.352 177.033 554.119Z" fill="black" stroke="black" stroke-width="3" stroke-linejoin="bevel"/>
<path fill-rule="evenodd" clip-rule="evenodd" d="M206.109 576.725C235.744 534.074 346.438 574.071 292.383 649.225C236.045 704.277 171.194 625.69 206.109 576.725V576.725Z" fill="white" stroke="black" stroke-width="3"/>
<path fill-rule="evenodd" clip-rule="evenodd" d="M548.556 249.801C548.556 249.801 539.382 432.21 554.673 438.001C580.665 439.447 715.22 442.342 721.338 429.313C693.816 416.284 696.874 232.43 548.556 249.801L548.556 249.801Z" fill="white" stroke="black" stroke-width="3" stroke-linejoin="bevel"/>
<path d="M272.587 731L196.337 906H164.337L87.8369 731H123.087L181.337 866L240.087 731H272.587ZM313.044 907.75C299.544 907.75 287.377 904.833 276.544 899C265.711 893.167 257.211 885.083 251.044 874.75C245.044 864.25 242.044 852.417 242.044 839.25C242.044 826.083 245.044 814.333 251.044 804C257.211 793.667 265.711 785.583 276.544 779.75C287.377 773.917 299.544 771 313.044 771C326.711 771 338.961 773.917 349.794 779.75C360.627 785.583 369.044 793.667 375.044 804C381.211 814.333 384.294 826.083 384.294 839.25C384.294 852.417 381.211 864.25 375.044 874.75C369.044 885.083 360.627 893.167 349.794 899C338.961 904.833 326.711 907.75 313.044 907.75ZM313.044 881C324.544 881 334.044 877.167 341.544 869.5C349.044 861.833 352.794 851.75 352.794 839.25C352.794 826.75 349.044 816.667 341.544 809C334.044 801.333 324.544 797.5 313.044 797.5C301.544 797.5 292.044 801.333 284.544 809C277.211 816.667 273.544 826.75 273.544 839.25C273.544 851.75 277.211 861.833 284.544 869.5C292.044 877.167 301.544 881 313.044 881ZM491.474 881V906H376.224V886.25L449.474 797.5H377.724V772.5H489.474V792.25L415.974 881H491.474ZM495.28 772.5H526.53V906H495.28V772.5ZM511.03 750.5C505.364 750.5 500.614 748.75 496.78 745.25C492.947 741.583 491.03 737.083 491.03 731.75C491.03 726.417 492.947 722 496.78 718.5C500.614 714.833 505.364 713 511.03 713C516.697 713 521.447 714.75 525.28 718.25C529.114 721.583 531.03 725.833 531.03 731C531.03 736.5 529.114 741.167 525.28 745C521.614 748.667 516.864 750.5 511.03 750.5Z" fill="black"/>
<path d="M706.296 906L706.046 790L648.546 886H634.046L576.546 791.5V906H545.546V731H572.296L641.796 847L710.046 731H736.796L737.046 906H706.296ZM881.815 840C881.815 842.167 881.649 845.25 881.315 849.25H776.565C778.399 859.083 783.149 866.917 790.815 872.75C798.649 878.417 808.315 881.25 819.815 881.25C834.482 881.25 846.565 876.417 856.065 866.75L872.815 886C866.815 893.167 859.232 898.583 850.065 902.25C840.899 905.917 830.565 907.75 819.065 907.75C804.399 907.75 791.482 904.833 780.315 899C769.149 893.167 760.482 885.083 754.315 874.75C748.315 864.25 745.315 852.417 745.315 839.25C745.315 826.25 748.232 814.583 754.065 804.25C760.065 793.75 768.315 785.583 778.815 779.75C789.315 773.917 801.149 771 814.315 771C827.315 771 838.899 773.917 849.065 779.75C859.399 785.417 867.399 793.5 873.065 804C878.899 814.333 881.815 826.333 881.815 840ZM814.315 796C804.315 796 795.815 799 788.815 805C781.982 810.833 777.815 818.667 776.315 828.5H852.065C850.732 818.833 846.649 811 839.815 805C832.982 799 824.482 796 814.315 796ZM882.833 731H919.833L913.583 848H888.833L882.833 731ZM901.333 907.75C895.5 907.75 890.666 905.917 886.833 902.25C883 898.417 881.083 893.75 881.083 888.25C881.083 882.75 883 878.167 886.833 874.5C890.666 870.833 895.5 869 901.333 869C907 869 911.666 870.833 915.333 874.5C919.166 878.167 921.083 882.75 921.083 888.25C921.083 893.75 919.166 898.417 915.333 902.25C911.666 905.917 907 907.75 901.333 907.75Z" fill="#FFD600"/>
<ellipse cx="511.5" cy="731.5" rx="20.5" ry="19.5" fill="#FFD600"/>
<ellipse cx="901" cy="888" rx="21" ry="20" fill="black"/>
</g>
<defs>
<clipPath id="clip0_0_1">
<rect width="1024" height="1024" fill="white"/>
</clipPath>
</defs>
</svg>
