<svg width="835" height="195" viewBox="0 0 835 195" fill="none" xmlns="http://www.w3.org/2000/svg">
<path d="M185.587 18L109.337 193H77.3369L0.836914 18H36.0869L94.3369 153L153.087 18H185.587ZM226.044 194.75C212.544 194.75 200.377 191.833 189.544 186C178.711 180.167 170.211 172.083 164.044 161.75C158.044 151.25 155.044 139.417 155.044 126.25C155.044 113.083 158.044 101.333 164.044 91C170.211 80.6667 178.711 72.5833 189.544 66.75C200.377 60.9167 212.544 58 226.044 58C239.711 58 251.961 60.9167 262.794 66.75C273.627 72.5833 282.044 80.6667 288.044 91C294.211 101.333 297.294 113.083 297.294 126.25C297.294 139.417 294.211 151.25 288.044 161.75C282.044 172.083 273.627 180.167 262.794 186C251.961 191.833 239.711 194.75 226.044 194.75ZM226.044 168C237.544 168 247.044 164.167 254.544 156.5C262.044 148.833 265.794 138.75 265.794 126.25C265.794 113.75 262.044 103.667 254.544 96C247.044 88.3333 237.544 84.5 226.044 84.5C214.544 84.5 205.044 88.3333 197.544 96C190.211 103.667 186.544 113.75 186.544 126.25C186.544 138.75 190.211 148.833 197.544 156.5C205.044 164.167 214.544 168 226.044 168ZM404.474 168V193H289.224V173.25L362.474 84.5H290.724V59.5H402.474V79.25L328.974 168H404.474ZM408.28 59.5H439.53V193H408.28V59.5ZM424.03 37.5C418.364 37.5 413.614 35.75 409.78 32.25C405.947 28.5833 404.03 24.0833 404.03 18.75C404.03 13.4167 405.947 8.99999 409.78 5.49999C413.614 1.83333 418.364 -3.69549e-06 424.03 -3.69549e-06C429.697 -3.69549e-06 434.447 1.74999 438.28 5.24999C442.114 8.58333 444.03 12.8333 444.03 18C444.03 23.5 442.114 28.1667 438.28 32C434.614 35.6667 429.864 37.5 424.03 37.5Z" fill="white"/>
<path d="M619.296 193L619.046 77L561.546 173H547.046L489.546 78.5V193H458.546V18H485.296L554.796 134L623.046 18H649.796L650.046 193H619.296ZM794.815 127C794.815 129.167 794.649 132.25 794.315 136.25H689.565C691.399 146.083 696.149 153.917 703.815 159.75C711.649 165.417 721.315 168.25 732.815 168.25C747.482 168.25 759.565 163.417 769.065 153.75L785.815 173C779.815 180.167 772.232 185.583 763.065 189.25C753.899 192.917 743.565 194.75 732.065 194.75C717.399 194.75 704.482 191.833 693.315 186C682.149 180.167 673.482 172.083 667.315 161.75C661.315 151.25 658.315 139.417 658.315 126.25C658.315 113.25 661.232 101.583 667.065 91.25C673.065 80.75 681.315 72.5833 691.815 66.75C702.315 60.9167 714.149 58 727.315 58C740.315 58 751.899 60.9167 762.065 66.75C772.399 72.4167 780.399 80.5 786.065 91C791.899 101.333 794.815 113.333 794.815 127ZM727.315 83C717.315 83 708.815 86 701.815 92C694.982 97.8333 690.815 105.667 689.315 115.5H765.065C763.732 105.833 759.649 98 752.815 92C745.982 86 737.482 83 727.315 83ZM795.833 18H832.833L826.583 135H801.833L795.833 18ZM814.333 194.75C808.5 194.75 803.666 192.917 799.833 189.25C796 185.417 794.083 180.75 794.083 175.25C794.083 169.75 796 165.167 799.833 161.5C803.666 157.833 808.5 156 814.333 156C820 156 824.666 157.833 828.333 161.5C832.166 165.167 834.083 169.75 834.083 175.25C834.083 180.75 832.166 185.417 828.333 189.25C824.666 192.917 820 194.75 814.333 194.75Z" fill="#FFD600"/>
</svg>
